<?xml version="1.0"?>
<svg xmlns="http://www.w3.org/2000/svg" xmlns:xlink="http://www.w3.org/1999/xlink" version="1.1" viewBox="0 0 192 192" width="80px" height="80px"><g fill="none" fill-rule="nonzero" stroke="none" stroke-width="1" stroke-linecap="butt" stroke-linejoin="miter" stroke-miterlimit="10" stroke-dasharray="" stroke-dashoffset="0" font-family="none" font-weight="none" font-size="none" text-anchor="none" style="mix-blend-mode: normal"><path d="M0,192v-192h192v192z" fill="none"/><g fill="#ffffff"><g id="surface1"><path d="M96,16.8c-43.59375,0 -79.2,32.12813 -79.2,72c0,22.49063 11.5125,42.4125 29.20313,55.58437c-2.25,8.0625 -5.97187,13.275 -9.47813,17.08125c-1.84687,2.01563 -3.61875,3.68437 -5.05313,5.38125c-1.425,1.69688 -2.67187,3.59063 -2.67187,5.95313v2.4h2.4c16.36875,0 32.80313,-10.09687 42.75,-17.31563c7.0125,1.85625 14.39063,2.91563 22.05,2.91563c43.59375,0 79.2,-32.12813 79.2,-72c0,-39.87187 -35.60625,-72 -79.2,-72zM96,21.6c41.24063,0 74.4,30.19687 74.4,67.2c0,37.00313 -33.15937,67.2 -74.4,67.2c-7.63125,0 -14.99063,-1.04063 -21.91875,-2.97187l-1.125,-0.31875l-0.94688,0.70313c-8.63437,6.3375 -23.1,14.82187 -36.72187,16.37813c1.1625,-1.35 2.85937,-2.99063 4.78125,-5.08125c3.96562,-4.3125 8.69062,-10.55625 11.09062,-20.4375l0.39375,-1.58437l-1.34063,-0.9375c-17.45625,-12.34687 -28.6125,-31.4625 -28.6125,-52.95c0,-37.00313 33.15937,-67.2 74.4,-67.2zM96.14063,28.8c-1.33125,0 -2.40937,1.06875 -2.40937,2.4c0,1.32187 1.06875,2.4 2.39062,2.4c1.33125,0 2.40938,-1.06875 2.40938,-2.4c0,-1.32187 -1.06875,-2.4 -2.39063,-2.4zM83.50313,30.02813c-0.16875,-0.00937 -0.32813,0.00937 -0.47813,0.04687c-1.30313,0.25313 -2.14687,1.50937 -1.89375,2.8125c0.25312,1.30313 1.51875,2.14687 2.82187,1.88437c1.29375,-0.25312 2.1375,-1.50937 1.88437,-2.8125c-0.225,-1.11562 -1.2,-1.93125 -2.33437,-1.93125zM108.825,30.075c-1.1625,-0.0375 -2.18437,0.77813 -2.40937,1.92187c-0.2625,1.30313 0.57187,2.56875 1.875,2.83125c1.30313,0.25313 2.56875,-0.58125 2.82187,-1.88437c0.2625,-1.30313 -0.57187,-2.56875 -1.875,-2.83125c-0.13125,-0.01875 -0.27187,-0.0375 -0.4125,-0.0375zM71.34375,33.68437c-0.31875,0 -0.6375,0.06563 -0.9375,0.17813c-0.59063,0.24375 -1.05938,0.7125 -1.30313,1.30313c-0.24375,0.59063 -0.24375,1.24687 0,1.8375c0.50625,1.22813 1.90313,1.80937 3.13125,1.30313c1.22813,-0.50625 1.80938,-1.90313 1.30313,-3.13125c-0.36563,-0.89063 -1.22813,-1.47187 -2.19375,-1.49063zM120.975,33.7875c-0.99375,-0.02813 -1.89375,0.5625 -2.27813,1.47187c-0.24375,0.59063 -0.24375,1.24688 0,1.8375c0.23438,0.59063 0.70313,1.05938 1.29375,1.30313c0.59063,0.24375 1.24687,0.24375 1.8375,0c0.59063,-0.23437 1.05937,-0.70313 1.30313,-1.29375c0.50625,-1.21875 -0.075,-2.625 -1.29375,-3.13125c-0.27187,-0.12187 -0.57187,-0.1875 -0.8625,-0.1875zM60.14063,39.64687c-0.4875,0 -0.95625,0.14063 -1.36875,0.40313c-1.09687,0.74063 -1.39687,2.23125 -0.65625,3.3375c0.73125,1.09687 2.22187,1.39687 3.31875,0.66563c1.10625,-0.73125 1.40625,-2.22187 0.66563,-3.32813c-0.43125,-0.65625 -1.17187,-1.05937 -1.95937,-1.07813zM132.15,39.7875c-0.81563,-0.01875 -1.58437,0.38437 -2.03437,1.05937c-0.74063,1.10625 -0.45,2.59688 0.64687,3.32813c0.53437,0.35625 1.18125,0.4875 1.80937,0.36563c0.61875,-0.12187 1.17188,-0.4875 1.52813,-1.0125c0.74063,-1.10625 0.44063,-2.59687 -0.65625,-3.32813c-0.38438,-0.2625 -0.825,-0.40313 -1.29375,-0.4125zM50.31563,47.69063c-0.65625,-0.00937 -1.275,0.24375 -1.74375,0.69375c-0.9375,0.9375 -0.9375,2.45625 0,3.40313c0.9375,0.9375 2.45625,0.9375 3.39375,0c0.9375,-0.9375 0.9375,-2.45625 0.00937,-3.39375c-0.45,-0.44063 -1.04063,-0.69375 -1.65937,-0.70313zM141.94687,47.87813c-0.64687,-0.01875 -1.26562,0.23437 -1.73437,0.69375c-0.9375,0.9375 -0.9375,2.45625 0,3.39375c0.44063,0.45 1.05937,0.70313 1.69687,0.70313c0.6375,0.00937 1.24688,-0.24375 1.69688,-0.69375c0.9375,-0.9375 0.9375,-2.45625 0.00937,-3.40313c-0.45,-0.44062 -1.04063,-0.68437 -1.66875,-0.69375zM42.24375,57.4875c-0.81563,-0.00937 -1.58438,0.38437 -2.04375,1.05937c-0.35625,0.53438 -0.4875,1.18125 -0.36563,1.80938c0.12188,0.61875 0.49688,1.17187 1.02188,1.52812c0.525,0.35625 1.18125,0.4875 1.8,0.36563c0.62812,-0.12187 1.18125,-0.49687 1.52812,-1.02187c0.74063,-1.09687 0.45,-2.5875 -0.64687,-3.32813c-0.38437,-0.25313 -0.83437,-0.39375 -1.29375,-0.4125zM149.99063,57.7125c-0.4875,-0.00937 -0.96563,0.13125 -1.36875,0.40313c-1.10625,0.73125 -1.39687,2.22187 -0.66562,3.31875c0.73125,1.10625 2.22187,1.40625 3.31875,0.675c1.10625,-0.73125 1.40625,-2.22187 0.675,-3.32812c-0.44063,-0.65625 -1.17187,-1.05938 -1.95937,-1.06875zM36.23437,68.68125c-0.98437,-0.02813 -1.88437,0.5625 -2.26875,1.48125c-0.24375,0.58125 -0.24375,1.24687 0,1.8375c0.23437,0.58125 0.70313,1.05 1.29375,1.30313c1.21875,0.50625 2.625,-0.075 3.14063,-1.30313c0.24375,-0.58125 0.24375,-1.24687 0,-1.8375c-0.24375,-0.58125 -0.7125,-1.05 -1.30313,-1.30313c-0.27187,-0.1125 -0.5625,-0.16875 -0.8625,-0.17812zM155.93437,68.925c-0.31875,0 -0.6375,0.06563 -0.9375,0.1875c-1.21875,0.50625 -1.80937,1.90313 -1.30312,3.13125c0.24375,0.59062 0.7125,1.05937 1.29375,1.30312c0.59063,0.24375 1.25625,0.24375 1.8375,0c1.22813,-0.50625 1.80937,-1.90312 1.3125,-3.13125c-0.375,-0.89063 -1.2375,-1.47187 -2.20313,-1.49063zM32.54063,80.83125c-1.17187,-0.0375 -2.19375,0.77812 -2.42813,1.93125c-0.12187,0.61875 0,1.26563 0.35625,1.8c0.35625,0.525 0.9,0.9 1.52812,1.02187c1.29375,0.2625 2.55938,-0.58125 2.82188,-1.88437c0.2625,-1.29375 -0.58125,-2.55937 -1.88438,-2.82187c-0.13125,-0.02813 -0.2625,-0.04687 -0.39375,-0.04687zM159.6,81.09375c-0.16875,0 -0.32813,0.00937 -0.4875,0.04687c-0.61875,0.12187 -1.17187,0.4875 -1.52813,1.0125c-0.34687,0.53437 -0.47812,1.18125 -0.35625,1.80937c0.25313,1.29375 1.51875,2.1375 2.82187,1.88437c1.29375,-0.25312 2.1375,-1.51875 1.88437,-2.82187c-0.225,-1.11563 -1.2,-1.92187 -2.33437,-1.93125zM31.2,93.46875c-1.32187,0 -2.4,1.06875 -2.4,2.39062c0,1.33125 1.06875,2.40938 2.4,2.40938c1.32187,0 2.4,-1.06875 2.4,-2.39063c0,-1.33125 -1.06875,-2.40937 -2.4,-2.40937zM160.8,93.72187c-1.32187,0 -2.39063,1.07813 -2.4,2.4c0,1.32188 1.07813,2.4 2.4,2.4c1.32187,0.00938 2.4,-1.06875 2.4,-2.39062c0.00937,-0.6375 -0.24375,-1.24688 -0.69375,-1.69688c-0.45,-0.45 -1.06875,-0.7125 -1.70625,-0.7125zM34.2375,105.075c-0.32813,-0.00937 -0.6375,0.05625 -0.9375,0.17813c-0.59063,0.24375 -1.05937,0.7125 -1.29375,1.30313c-0.24375,0.59062 -0.24375,1.24687 0,1.8375c0.24375,0.59062 0.7125,1.05937 1.30312,1.29375c0.59063,0.24375 1.24688,0.24375 1.8375,0c1.22813,-0.51563 1.8,-1.92187 1.29375,-3.14063c-0.375,-0.89062 -1.24687,-1.47187 -2.20313,-1.47187zM157.8375,105.075c-0.99375,-0.02813 -1.89375,0.5625 -2.27813,1.47187c-0.50625,1.22813 0.075,2.63438 1.29375,3.14063c1.21875,0.50625 2.625,-0.06563 3.13125,-1.28437c0.25313,-0.59063 0.25313,-1.25625 0.00938,-1.84687c-0.24375,-0.58125 -0.7125,-1.05 -1.29375,-1.29375c-0.28125,-0.12187 -0.57187,-0.17813 -0.8625,-0.1875zM150.72187,115.95c-0.81562,-0.01875 -1.58437,0.38437 -2.03437,1.05937c-0.74063,1.10625 -0.45,2.59688 0.64687,3.32813c0.525,0.35625 1.18125,0.4875 1.8,0.36563c0.62813,-0.12187 1.18125,-0.4875 1.52813,-1.0125c0.74063,-1.10625 0.45,-2.59687 -0.64687,-3.32813c-0.38437,-0.2625 -0.83437,-0.40313 -1.29375,-0.4125zM41.35313,115.95937c-0.4875,0 -0.96563,0.14063 -1.36875,0.40313c-0.525,0.35625 -0.89062,0.90937 -1.0125,1.5375c-0.12187,0.61875 0.00938,1.275 0.36563,1.8c0.34687,0.525 0.9,0.89063 1.52813,1.0125c0.62813,0.12187 1.275,-0.00937 1.8,-0.36563c1.09687,-0.73125 1.3875,-2.22187 0.64687,-3.31875c-0.43125,-0.66563 -1.17187,-1.05937 -1.95937,-1.06875zM50.12813,124.93125c-0.64687,-0.00938 -1.275,0.24375 -1.73437,0.69375c-0.9375,0.9375 -0.9375,2.45625 -0.00938,3.40313c0.9375,0.9375 2.45625,0.9375 3.40313,0c0.9375,-0.9375 0.9375,-2.45625 0,-3.39375c-0.44063,-0.44062 -1.03125,-0.69375 -1.65937,-0.70312zM141.76875,125.10937c-0.64688,-0.00937 -1.275,0.24375 -1.73438,0.70313c-0.45,0.44063 -0.70312,1.05937 -0.70312,1.69687c-0.00938,0.6375 0.24375,1.24688 0.69375,1.69688c0.9375,0.9375 2.45625,0.9375 3.40313,0.00937c0.9375,-0.9375 0.9375,-2.45625 0,-3.40313c-0.44063,-0.44063 -1.03125,-0.69375 -1.65937,-0.70313zM131.925,133.1625c-0.4875,-0.00937 -0.95625,0.13125 -1.35937,0.39375c-1.10625,0.73125 -1.40625,2.22187 -0.66563,3.32812c0.73125,1.10625 2.22187,1.40625 3.32813,0.66563c1.09687,-0.73125 1.39687,-2.22187 0.66563,-3.32813c-0.44063,-0.65625 -1.17188,-1.05937 -1.96875,-1.05937zM120.70313,139.125c-0.32813,0 -0.64687,0.05625 -0.9375,0.17813c-0.59063,0.24375 -1.05937,0.7125 -1.3125,1.29375c-0.24375,0.59063 -0.24375,1.25625 0,1.8375c0.24375,0.59063 0.7125,1.05938 1.29375,1.30313c0.59063,0.24375 1.25625,0.24375 1.8375,0c1.22813,-0.49687 1.80938,-1.90313 1.30313,-3.12187c-0.36563,-0.9 -1.22813,-1.48125 -2.18437,-1.49063zM83.29687,142.725c-1.17187,-0.02813 -2.18437,0.77813 -2.41875,1.92187c-0.2625,1.30313 0.58125,2.56875 1.88437,2.83125c1.29375,0.2625 2.55937,-0.58125 2.82187,-1.875c0.2625,-1.30313 -0.58125,-2.56875 -1.88437,-2.83125c-0.13125,-0.02812 -0.2625,-0.04687 -0.40313,-0.04687zM108.525,142.79063c-0.15937,0 -0.31875,0.00937 -0.47813,0.04687c-0.61875,0.12187 -1.17187,0.4875 -1.52812,1.0125c-0.35625,0.53437 -0.4875,1.18125 -0.35625,1.8c0.25313,1.30313 1.50937,2.14687 2.8125,1.89375c1.30313,-0.25313 2.14687,-1.51875 1.89375,-2.82188c-0.225,-1.11562 -1.2,-1.92187 -2.34375,-1.93125zM95.87813,144c-1.32187,0 -2.4,1.07813 -2.4,2.4c-0.00937,1.32187 1.06875,2.4 2.39063,2.4c0.6375,0.00937 1.24687,-0.24375 1.69687,-0.69375c0.45,-0.45 0.7125,-1.06875 0.7125,-1.70625c0,-1.32187 -1.07813,-2.39063 -2.4,-2.4z"/></g></g></g></svg>
